<svg id="_404" data-name="404" xmlns="http://www.w3.org/2000/svg" width="712" height="274" viewBox="0 0 712 274">
  <defs>
    <style>
      .cls-1 {
        fill: #f5f5f5;
      }

      .cls-1, .cls-2, .cls-3 {
        fill-rule: evenodd;
      }

      .cls-2 {
        fill: #fcdb02;
      }

      .cls-3 {
        fill: #214d63;
      }
    </style>
  </defs>
  <path class="cls-1" d="M1179.48,471c-59.55,0-115.46,5.283-115.46,5.283-13.41,1.812-24.98,3.606-34.88,5.375,0,0-14.97,5.9-42.619,5.9a117.628,117.628,0,0,1-15.956-.917,478.9,478.9,0,0,0-59.385-3.668c-18.116,0-38.3,1.15-51.433,4.459-10.131-2.407-44.159-4.888-62.866-7.416,0,0-42.8-4.043-88.379-4.044-37.986,0-77.895,2.807-96.579,13.105-41.1,22.654,89.4,27.185,126.9,28.883,1.637,0.075,3.546.111,5.684,0.111,21.3,0,85.515-3.609,113.122-9.478,12.056,2.316,31.171,3.268,48.133,3.268a389.016,389.016,0,0,0,43.994-2.283,216.979,216.979,0,0,1,26.667-1.753c21.305,0,17.016,3.686,46.656,8.157C1058.9,522.243,1107.6,526,1132.44,526c2.8,0,5.29-.047,7.42-0.144,49-2.22,219.5-8.14,165.8-37.735C1281.25,474.668,1229.1,471,1179.48,471" transform="translate(-604 -252)"/>
  <path class="cls-2" d="M1027.97,272.181c-15.9-4.278-36.437-.869-49.625,9.223l1.5,14.657-26.314,21.766,16.416,19.729-16.914,10.992L967.8,375.764l-36.3,62,24.105-58.26-23.535-32.2,24.181-11.565-10.679-18.707L968.823,292.9,968.287,291c-4.2-20.023-33.464-36.931-54.367-38.738-56.664-4.9-87.495,59.375-71.872,109.01,8.408,26.714,22.924,51.335,39.49,74.065C895.411,454.375,932.5,496.1,932.649,496c0.111,0.14,49.253-26.377,68.811-39.517,23.35-15.691,45.43-33.859,62.48-56.083C1095.63,359.112,1082.89,286.957,1027.97,272.181Z" transform="translate(-604 -252)"/>
  <path id="_4" data-name="4" class="cls-3" d="M791.774,390.788h-14.28V275.528a20.406,20.406,0,0,0-5.78-14.79,19.142,19.142,0,0,0-14.28-5.95,20.623,20.623,0,0,0-17,8.16l-107.44,131.58a20.739,20.739,0,0,0-5.1,13.6,18.552,18.552,0,0,0,6.46,14.11q6.455,5.954,13.94,5.95h88.4v43.86a20.362,20.362,0,0,0,5.78,14.79,19.1,19.1,0,0,0,14.28,5.95,20.329,20.329,0,0,0,20.74-20.74v-43.86h14.28a18.756,18.756,0,0,0,13.6-5.27,17.493,17.493,0,0,0,5.44-13.09,18.592,18.592,0,0,0-19.04-19.04h0Zm-55.08-68v68h-55.08Z" transform="translate(-604 -252)"/>
  <path id="_4-2" data-name="4" class="cls-3" d="M1272.77,390.788h-14.28V275.528a20.37,20.37,0,0,0-5.78-14.79,19.121,19.121,0,0,0-14.28-5.95,20.644,20.644,0,0,0-17,8.16l-107.44,131.58a20.739,20.739,0,0,0-5.1,13.6,18.583,18.583,0,0,0,6.46,14.11q6.465,5.954,13.94,5.95h88.4v43.86a20.391,20.391,0,0,0,5.78,14.79,19.13,19.13,0,0,0,14.28,5.95,20.329,20.329,0,0,0,20.74-20.74v-43.86h14.28a18.742,18.742,0,0,0,13.6-5.27,17.467,17.467,0,0,0,5.44-13.09,18.592,18.592,0,0,0-19.04-19.04h0Zm-55.08-68v68h-55.08Z" transform="translate(-604 -252)"/>
</svg>
