<svg id="logo" xmlns="http://www.w3.org/2000/svg" width="164" height="46" viewBox="0 0 164 46">
  <defs>
    <style>
      .cls-1 {
        fill: #fff;
      }

      .cls-1, .cls-2, .cls-3 {
        fill-rule: evenodd;
      }

      .cls-2 {
        fill: #214d63;
      }

      .cls-3 {
        fill: #fcdb02;
      }
    </style>
  </defs>
  <path id="Sitters" class="cls-1" d="M79.736,17.911a8.765,8.765,0,0,1,5.28,1.9l2.219-3.131a10.6,10.6,0,0,0-3.426-1.868,12.306,12.306,0,0,0-3.932-.659,8.207,8.207,0,0,0-5.013,1.483,4.93,4.93,0,0,0-2.008,4.216,4.842,4.842,0,0,0,1.587,4.011,12.719,12.719,0,0,0,5.013,2.074,9.672,9.672,0,0,1,2.893,1.03,1.591,1.591,0,0,1,.73,1.373,1.619,1.619,0,0,1-.688,1.374,3.132,3.132,0,0,1-1.9.508q-2.7,0-5.87-2.719l-2.612,3.131a12.2,12.2,0,0,0,8.4,3.379A8.013,8.013,0,0,0,85.62,32.4a5.14,5.14,0,0,0,1.98-4.189,4.93,4.93,0,0,0-1.545-3.928,10.142,10.142,0,0,0-4.339-2.019A14.32,14.32,0,0,1,78.149,21.1a1.514,1.514,0,0,1-.772-1.332,1.642,1.642,0,0,1,.632-1.346,2.682,2.682,0,0,1,1.727-.508h0Zm15.391,1.1H90.914V33.788h4.213V19.01ZM93.02,17.829a2.415,2.415,0,0,0,1.755-.7,2.416,2.416,0,0,0,0-3.433,2.55,2.55,0,0,0-3.511,0,2.416,2.416,0,0,0,0,3.433A2.415,2.415,0,0,0,93.02,17.829Zm14.773,4.148V19.01h-3.651V14.588H99.9V19.01H98.132v2.967H99.9v6.812a4.965,4.965,0,0,0,1.5,3.818,5.194,5.194,0,0,0,3.679,1.4,6.151,6.151,0,0,0,4.143-1.758l-1.573-2.884a2.45,2.45,0,0,1-1.994,1.044,1.414,1.414,0,0,1-1.068-.481,1.876,1.876,0,0,1-.449-1.332v-6.62h3.651Zm12.358,0V19.01H116.5V14.588h-4.241V19.01h-1.769v2.967h1.769v6.812a4.965,4.965,0,0,0,1.5,3.818,5.194,5.194,0,0,0,3.679,1.4,6.151,6.151,0,0,0,4.143-1.758l-1.573-2.884a2.449,2.449,0,0,1-1.994,1.044,1.411,1.411,0,0,1-1.067-.481,1.872,1.872,0,0,1-.45-1.332v-6.62h3.652Zm14.407,7.169a4.9,4.9,0,0,1-3.651,1.456,4.194,4.194,0,0,1-2.471-.769,2.926,2.926,0,0,1-1.292-1.978h11.009v-2.2a6.269,6.269,0,0,0-2.176-5.054,7.928,7.928,0,0,0-5.3-1.84,7.815,7.815,0,0,0-5.406,2.06,7.094,7.094,0,0,0-2.289,5.549,7.2,7.2,0,0,0,2.247,5.562,8.057,8.057,0,0,0,5.687,2.074,8.547,8.547,0,0,0,6-2.362Zm-0.674-4.23h-6.628a2.825,2.825,0,0,1,1.208-2.005,3.85,3.85,0,0,1,2.289-.742,3.234,3.234,0,0,1,2.12.714,2.905,2.905,0,0,1,1.011,2.033h0Zm16.065-2.28-0.028-3.873a5.631,5.631,0,0,0-2.485.659A7.06,7.06,0,0,0,145.4,20.96V19.01h-4.213V33.788H145.4v-6.4a5.831,5.831,0,0,1,.927-3.447,3.216,3.216,0,0,1,2.809-1.3h0.814Zm12.47,3.434a10.339,10.339,0,0,0-1.446-.728q-0.6-.233-2.036-0.673a12.664,12.664,0,0,1-2.051-.769,1,1,0,0,1-.618-0.907q0-1.044,1.952-1.044a7,7,0,0,1,3.918,1.319l1.573-2.747a9.641,9.641,0,0,0-5.336-1.758,6.957,6.957,0,0,0-4.353,1.291,4.019,4.019,0,0,0-1.686,3.337,3.392,3.392,0,0,0,1.714,3.09,10.731,10.731,0,0,0,1.5.8q0.66,0.275,1.91.659a7.559,7.559,0,0,1,1.91.824,1.208,1.208,0,0,1,.66.961,0.963,0.963,0,0,1-.477.838,2.318,2.318,0,0,1-1.292.316,8.183,8.183,0,0,1-5.028-1.785l-1.853,2.582a10.412,10.412,0,0,0,3.286,1.744,11.388,11.388,0,0,0,3.51.591,6.454,6.454,0,0,0,4.171-1.319,4.266,4.266,0,0,0,1.643-3.5,3.335,3.335,0,0,0-1.573-3.118h0Z"/>
  <path class="cls-2" d="M51.96,32.516L34.671,14.924c-1.8,1.4-5.807,4.494-7.907,5.928a4.169,4.169,0,0,1-2.364.724,4.4,4.4,0,0,1-3.979-2.466c-0.478-1-.957-3.082,1.2-5.713a86.2,86.2,0,0,1,6.6-7.344,40.363,40.363,0,0,0-4.933-3.929C18.343-1.2,7.906-.134,2.7,8.085-4.038,18.722,3.716,28.538,6.608,31.466c5.848,5.923,16.541,11.982,21.054,13.911,3.979,1.7,5.679-.526,6.371-2.23-3.761-2.374-12.067-8.809-12.461-9.115a0.372,0.372,0,1,1,.457-0.587c0.1,0.077,9.26,7.174,12.762,9.3,1.27,0.233,4.356.467,5.634-2.318-3.845-2.574-12.718-10.132-13.138-10.49a0.372,0.372,0,1,1,.485-0.565c0.1,0.088,9.466,8.064,13.184,10.516A4.794,4.794,0,0,0,46,36.111c-3.674-2.435-12.315-9.987-12.719-10.34a0.373,0.373,0,1,1,.492-0.559c0.1,0.088,9.213,8.052,12.744,10.35,1.125,0.112,4.261.127,5.592-2.943A0.739,0.739,0,0,1,51.96,32.516Z"/>
  <path class="cls-3" d="M35,14.01c-1.193.929-6.1,4.729-8.473,6.345a3.464,3.464,0,0,1-1.961.6A3.686,3.686,0,0,1,21.233,18.9c-0.406-.85-0.8-2.624,1.116-4.95C25.85,9.7,29.7,5.257,34.825,1.829A12.438,12.438,0,0,1,41.666,0,17.063,17.063,0,0,1,56.137,7.935c6.695,10.529-.053,21.1-2.945,23.974l-0.269.267Z"/>
</svg>
