<svg xmlns="http://www.w3.org/2000/svg" width="164" height="46" viewBox="0 0 164 46">
  <defs>
    <style>
      .cls-1 {
        fill: #214d63;
      }

      .cls-1, .cls-2 {
        fill-rule: evenodd;
      }

      .cls-2 {
        fill: #fcdb02;
      }
    </style>
  </defs>
  <path class="cls-1" d="M51.956,32.516l-17.3-17.593c-1.8,1.4-5.81,4.494-7.912,5.928a4.174,4.174,0,0,1-2.366.724A4.4,4.4,0,0,1,20.4,19.109c-0.478-1-.957-3.082,1.2-5.713a86.234,86.234,0,0,1,6.605-7.344A40.382,40.382,0,0,0,23.27,2.122C18.318-1.2,7.874-.134,2.665,8.085c-6.742,10.637,1.017,20.453,3.91,23.382,5.852,5.923,16.552,11.982,21.067,13.911,3.981,1.7,5.682-.526,6.375-2.23-3.764-2.374-12.075-8.809-12.469-9.115a0.372,0.372,0,1,1,.458-0.587c0.1,0.077,9.265,7.174,12.77,9.3,1.271,0.233,4.358.467,5.638-2.318-3.848-2.574-12.726-10.132-13.146-10.49a0.373,0.373,0,1,1,.486-0.565c0.1,0.088,9.471,8.064,13.192,10.516a4.8,4.8,0,0,0,5.047-3.774c-3.676-2.435-12.323-9.987-12.727-10.34a0.373,0.373,0,1,1,.493-0.559c0.1,0.088,9.218,8.052,12.752,10.35,1.125,0.112,4.264.127,5.6-2.943A0.74,0.74,0,0,1,51.956,32.516Z"/>
  <path class="cls-2" d="M34.988,14.01c-1.194.929-6.1,4.729-8.478,6.345a3.468,3.468,0,0,1-1.962.6A3.689,3.689,0,0,1,21.209,18.9c-0.406-.85-0.8-2.624,1.116-4.95,3.5-4.253,7.352-8.692,12.485-12.12A12.451,12.451,0,0,1,41.655,0,17.076,17.076,0,0,1,56.136,7.935c6.7,10.529-.053,21.1-2.947,23.974l-0.269.267Z"/>
  <path id="Sitters" class="cls-1" d="M79.736,17.914a8.767,8.767,0,0,1,5.281,1.9l2.219-3.131a10.609,10.609,0,0,0-3.427-1.868,12.312,12.312,0,0,0-3.933-.659,8.21,8.21,0,0,0-5.014,1.483,4.929,4.929,0,0,0-2.008,4.216,4.841,4.841,0,0,0,1.587,4.01,12.723,12.723,0,0,0,5.014,2.074,9.671,9.671,0,0,1,2.893,1.03,1.591,1.591,0,0,1,.73,1.373,1.619,1.619,0,0,1-.688,1.373,3.133,3.133,0,0,1-1.9.508q-2.7,0-5.871-2.719l-2.612,3.131a12.2,12.2,0,0,0,8.4,3.378A8.016,8.016,0,0,0,85.621,32.4a5.139,5.139,0,0,0,1.98-4.189,4.93,4.93,0,0,0-1.545-3.928,10.145,10.145,0,0,0-4.34-2.019A14.329,14.329,0,0,1,78.148,21.1a1.514,1.514,0,0,1-.772-1.332,1.642,1.642,0,0,1,.632-1.346,2.683,2.683,0,0,1,1.728-.508h0Zm15.393,1.1H90.915V33.789h4.214V19.012Zm-2.107-1.181a2.416,2.416,0,0,0,1.756-.7,2.415,2.415,0,0,0,0-3.433,2.551,2.551,0,0,0-3.511,0,2.415,2.415,0,0,0,0,3.433A2.416,2.416,0,0,0,93.022,17.831ZM107.8,21.979V19.012h-3.652V14.59H99.9v4.422h-1.77v2.966H99.9V28.79a4.965,4.965,0,0,0,1.5,3.818,5.2,5.2,0,0,0,3.68,1.4,6.151,6.151,0,0,0,4.143-1.758l-1.573-2.884a2.449,2.449,0,0,1-1.994,1.044,1.414,1.414,0,0,1-1.068-.481,1.876,1.876,0,0,1-.449-1.332V21.979H107.8Zm12.359,0V19.012h-3.652V14.59h-4.241v4.422h-1.77v2.966h1.77V28.79a4.965,4.965,0,0,0,1.5,3.818,5.194,5.194,0,0,0,3.679,1.4,6.152,6.152,0,0,0,4.144-1.758l-1.573-2.884a2.451,2.451,0,0,1-1.995,1.044,1.411,1.411,0,0,1-1.067-.481,1.872,1.872,0,0,1-.45-1.332V21.979h3.652Zm14.41,7.169a4.9,4.9,0,0,1-3.651,1.456,4.2,4.2,0,0,1-2.472-.769,2.925,2.925,0,0,1-1.292-1.978h11.011v-2.2a6.266,6.266,0,0,0-2.177-5.054,7.927,7.927,0,0,0-5.295-1.84,7.821,7.821,0,0,0-5.408,2.06,7.094,7.094,0,0,0-2.289,5.548,7.2,7.2,0,0,0,2.247,5.562,8.061,8.061,0,0,0,5.689,2.074,8.55,8.55,0,0,0,6-2.362Zm-0.674-4.23h-6.629a2.825,2.825,0,0,1,1.208-2,3.852,3.852,0,0,1,2.289-.742,3.239,3.239,0,0,1,2.121.714,2.905,2.905,0,0,1,1.011,2.032h0Zm16.068-2.28-0.028-3.873a5.634,5.634,0,0,0-2.486.659,7.06,7.06,0,0,0-2.037,1.538v-1.95H141.2V33.789h4.213v-6.4a5.83,5.83,0,0,1,.927-3.447,3.218,3.218,0,0,1,2.81-1.3h0.814Zm12.472,3.433a10.339,10.339,0,0,0-1.446-.728q-0.6-.233-2.037-0.673a12.609,12.609,0,0,1-2.05-.769A1,1,0,0,1,156.282,23q0-1.044,1.952-1.044a7,7,0,0,1,3.918,1.318l1.574-2.747a9.65,9.65,0,0,0-5.338-1.758,6.962,6.962,0,0,0-4.354,1.291,4.02,4.02,0,0,0-1.685,3.337,3.393,3.393,0,0,0,1.713,3.09,10.8,10.8,0,0,0,1.5.8q0.66,0.275,1.91.659a7.582,7.582,0,0,1,1.911.824,1.21,1.21,0,0,1,.66.961,0.964,0.964,0,0,1-.478.838,2.315,2.315,0,0,1-1.292.316,8.186,8.186,0,0,1-5.028-1.785l-1.854,2.582a10.423,10.423,0,0,0,3.286,1.744,11.4,11.4,0,0,0,3.512.591,6.454,6.454,0,0,0,4.171-1.318,4.263,4.263,0,0,0,1.643-3.5,3.335,3.335,0,0,0-1.573-3.117h0Z"/>
</svg>
