<svg id="Layer_1" data-name="Layer 1" xmlns="http://www.w3.org/2000/svg" width="873.38" height="267.8" viewBox="0 0 873.38 267.8"><defs><style>.cls-1{fill:#fcdb02;}.cls-2{fill:#fff;}</style></defs><title>text</title><path class="cls-1" d="M81.43,201a3.72,3.72,0,0,1,2.24,1.33,3.05,3.05,0,0,1,.7,2.31q-.7,5.88-8.54,17.78t-14.7,15.12q-4.77,2.25-8.4-.14-6.87-4.34-4.76-21.14-11.2,15.12-18.41,21.49T18,244.15a4.7,4.7,0,0,1-2.66-.84c-2.06-1.3-3.15-3.75-3.29-7.35a39.58,39.58,0,0,1,2.1-12.88q2.31-7.49,4.83-13.86T24.87,196a2.94,2.94,0,0,1,1.82-1.68,3.39,3.39,0,0,1,2.52.14,3,3,0,0,1,1.68,1.82,3.39,3.39,0,0,1-.14,2.52A183.07,183.07,0,0,0,21,223.5q-3.57,11.7-2.17,14.21,3.36-.69,13-11.9a283.69,283.69,0,0,0,19.88-26.32,2.83,2.83,0,0,1,4.06-1.12,2.8,2.8,0,0,1,1.61,1.54,3.49,3.49,0,0,1,.21,2.24,104.61,104.61,0,0,0-2.73,12,55.55,55.55,0,0,0-.84,11.41c.14,3.46.86,5.6,2.17,6.44.37.28,1.07.19,2.1-.28q5.31-2.52,12.18-13.09T77.93,204a3.14,3.14,0,0,1,1.19-2.24A3.05,3.05,0,0,1,81.43,201Z" transform="translate(-12.04 -64.97)"/><path class="cls-1" d="M153,232.32a2.93,2.93,0,0,1,2.38.63,3.38,3.38,0,0,1,1.26,2.17,3.12,3.12,0,0,1-.63,2.45,22,22,0,0,1-5.46,5,14.86,14.86,0,0,1-7.42,2.66,11.88,11.88,0,0,1-9.52-3.64,12.18,12.18,0,0,1-2.73-5.18,44.41,44.41,0,0,1-1.47-6.44q-.42-2.94-.84-8.82-1.41-15.25-3.36-17.08-3.78,2.25-17.5,28.7-8.27,16-12,21.35t-6.93,5.39h-.56q-3.23-.42-4.2-4.2-2-7.14,4.9-36.4a2.77,2.77,0,0,1,.28-1.26q2.66-11.48,6.3-23.94,4.62-16.38,9.66-30.31t9.8-24.08a81.64,81.64,0,0,1,9-15.47q5.31-6.86,10.5-6.86,4.75,0,6.72,3.78,2.23,4.35-.91,14.91a142.37,142.37,0,0,1-8.75,22q-5.61,11.42-13.65,25.48t-13,22q-5,8-9.45,15-2.52,10.36-3.92,18.41a77,77,0,0,0-1.4,12.25q3.08-4.34,11.9-21.14,10.35-20,15.47-26.88t9.73-5a6.07,6.07,0,0,1,3.08,2.24,15.3,15.3,0,0,1,2,3.43,29.57,29.57,0,0,1,1.33,5.11c.42,2.24.7,4.09.84,5.53l.63,6.51q1.39,14.56,3.22,16.38a5.65,5.65,0,0,0,4.48,1.82A8.68,8.68,0,0,0,147.3,237a16.69,16.69,0,0,0,3.57-3.36A3.28,3.28,0,0,1,153,232.32ZM129.17,128q-6.87,8.82-14.49,28.56a453.54,453.54,0,0,0-14.07,43.12q10.92-17.77,19.32-33.46a235.16,235.16,0,0,0,12.81-27.37q4.41-11.69,2.73-14.91a2.28,2.28,0,0,0-1.12-.42C133.13,123.47,131.41,125,129.17,128Z" transform="translate(-12.04 -64.97)"/><path class="cls-1" d="M201.61,216.92a3,3,0,0,1,2.31.91,3.16,3.16,0,0,1,1,2.31,3.42,3.42,0,0,1-.84,2.31c-1.4,1.5-3.1,3.15-5.11,5s-4.9,4.25-8.68,7.28a59.23,59.23,0,0,1-11.9,7.49A26.89,26.89,0,0,1,167,245.13a13.08,13.08,0,0,1-8.75-3.08,15.41,15.41,0,0,1-4.69-9.17,28.65,28.65,0,0,1,.56-11.55,53.27,53.27,0,0,1,4.55-11.76,41.26,41.26,0,0,1,9.66-12.11q5.74-4.83,11.48-3.29t6.3,5.88c.28,2.06-.46,4.39-2.24,7a37.1,37.1,0,0,1-7.35,7.77q-4.68,3.85-8.61,6.58t-8.12,5.39q-.69,7.14,2.8,10.36,2.1,2.1,5.81,1.4a29.21,29.21,0,0,0,7.77-2.73,58.27,58.27,0,0,0,8.54-5.32q4.48-3.28,8.12-6.44T199.3,218A3.49,3.49,0,0,1,201.61,216.92Zm-37.17-4.13a44.67,44.67,0,0,0-2.24,4.62,120.56,120.56,0,0,0,12.46-9.8q5-4.62,5-6.58c0-.09-.51-.23-1.54-.42a2.74,2.74,0,0,0-.84-.14c-1.86,0-4,1.15-6.37,3.43A35.71,35.71,0,0,0,164.44,212.79Z" transform="translate(-12.04 -64.97)"/><path class="cls-1" d="M247.75,235.89a3,3,0,0,1,2.31,1,3.33,3.33,0,0,1,.9,2.31,3.12,3.12,0,0,1-1,2.31q-4.75,4.48-9.65,4.48a7.28,7.28,0,0,1-4.35-1.4,8.72,8.72,0,0,1-3.15-4.41,26.78,26.78,0,0,1-1.54-5.81q-.34-2.65-.91-7.84-.82-9.24-1.82-10.92-3.34,1-16.93,17.5-4.9,6-7.28,8.54a14.74,14.74,0,0,1-4.06,3.29,3,3,0,0,1-3.23-.35,3.12,3.12,0,0,1-1.39-2.94q.84-8.67,9.93-44.94a3.59,3.59,0,0,1,1.55-2,3.26,3.26,0,0,1,2.45-.42,3,3,0,0,1,2,1.47,3.3,3.3,0,0,1,.41,2.45q-4.47,17.09-8,33.88l2.52-3.22q9.25-11.19,14.29-15.82t9-4.06a5.91,5.91,0,0,1,3.29,1.54,8.38,8.38,0,0,1,2,4.06c.46,1.87.81,3.5,1,4.9s.5,3.55.77,6.44q1.13,12.18,2.67,13.3c.56.38,1.44.26,2.66-.35a14.13,14.13,0,0,0,3.21-2.17A3,3,0,0,1,247.75,235.89Z" transform="translate(-12.04 -64.97)"/><path class="cls-1" d="M343.92,219.37a3.88,3.88,0,0,1,.14,1.75,3.22,3.22,0,0,1-.7,1.47,2.87,2.87,0,0,1-1.4,1,102.68,102.68,0,0,0-14,6.3,118.43,118.43,0,0,1-7.42,36.82,150.13,150.13,0,0,1-15.26,29.12,140.65,140.65,0,0,1-20.23,24.57q-10.56,10-18.55,12a15,15,0,0,1-3.36.42,9.71,9.71,0,0,1-6.72-2.52q-6.3-5.46-3.78-17.92,2.25-11.76,11.83-27.72a189,189,0,0,1,25-32.2,151.72,151.72,0,0,1,32.06-26.18q.28-14.41-2.24-20.72-2.23,2.38-9,10.78T299.82,229a68.18,68.18,0,0,1-8.19,8c-2.85,2.34-5.25,3.64-7.21,3.92a6.13,6.13,0,0,1-4.62-1.26q-6.44-5.31.84-26.88a179.29,179.29,0,0,1,7.7-19,3.28,3.28,0,0,1,1.89-1.61,3.19,3.19,0,0,1,2.52.07,3.28,3.28,0,0,1,1.68,1.89,2.64,2.64,0,0,1-.21,2.45,154.85,154.85,0,0,0-9.31,24.71q-3.15,11.55-.91,13.23,3.36,0,21.14-22.26,7-8.67,9.66-11.41c1.77-1.82,3.36-2.77,4.76-2.87a3.64,3.64,0,0,1,2.8.84q5.59,4.91,5.74,23.66a94.24,94.24,0,0,1,11.62-5,3.39,3.39,0,0,1,2.52.14A3,3,0,0,1,343.92,219.37Zm-29.54,44.94a106.9,106.9,0,0,0,6.72-30.24,153.79,153.79,0,0,0-29,24.78,174.5,174.5,0,0,0-22.4,29.47q-8.54,14.49-10.64,25.27-1.81,8.82,1.68,11.76,1.41,1.26,4.2.56,6.45-1.53,15.82-10.5a139.84,139.84,0,0,0,18.83-23A136,136,0,0,0,314.38,264.31Z" transform="translate(-12.04 -64.97)"/><path class="cls-1" d="M386.69,198.58a3.35,3.35,0,0,1,2.17,1.26,3.31,3.31,0,0,1-.42,4.55q-8.26,6.59-21,3.64.71,4.91-.42,13.72a36.91,36.91,0,0,1-3.71,10.5q-3.15,6.45-7.77,9.24a10.32,10.32,0,0,1-5.6,1.68,9.21,9.21,0,0,1-3.22-.56q-9.8-3.36-7.7-21c.09-.65.14-1.07.14-1.26a27.7,27.7,0,0,1,2.94-9.17,30.65,30.65,0,0,1,7-9.17q4.48-4,9.38-4.06a7.61,7.61,0,0,1,5.6,2.24q12.89,4.91,20.16-1A3.13,3.13,0,0,1,386.69,198.58Zm-26.25,22.47q1.55-11.9-.28-15.4a11,11,0,0,1-2.38-1.12q-3.91.71-7.84,6.3t-4.2,10.08a5.06,5.06,0,0,0-.14,1.4,26.22,26.22,0,0,0-.21,8.75q.63,4.41,3.43,5.39a4,4,0,0,0,3.36-.42,16.12,16.12,0,0,0,4-4.62,33.42,33.42,0,0,0,3.08-6A17.91,17.91,0,0,0,360.44,221.05Z" transform="translate(-12.04 -64.97)"/><path class="cls-1" d="M439.19,212.79a3.05,3.05,0,0,1,2.38.77,3.35,3.35,0,0,1,1.19,2.24,2.94,2.94,0,0,1-.7,2.31c-.47.66-1,1.33-1.61,2s-1.45,1.64-2.52,2.8-2.17,2.27-3.29,3.29-2.4,2.17-3.85,3.43-2.85,2.38-4.2,3.36a36.58,36.58,0,0,1-4.41,2.73,25.16,25.16,0,0,1-4.48,1.89,13.45,13.45,0,0,1-4.34.56,11.37,11.37,0,0,1-4.2-.91q-5.18-2.52-3.5-15-11.76,17.5-20.16,17.5a8,8,0,0,1-2.24-.28,7.53,7.53,0,0,1-4.76-4.48,12.82,12.82,0,0,1-1-5.39,33.79,33.79,0,0,1,.77-6.93q.76-3.63,1.82-7.07t2.45-6.86q1.4-3.42,2.24-5.39c.56-1.3,1.07-2.47,1.54-3.5a2.94,2.94,0,0,1,1.82-1.68,3.39,3.39,0,0,1,2.52.14,3,3,0,0,1,1.68,1.82,3.39,3.39,0,0,1-.14,2.52,117.36,117.36,0,0,0-6.58,17.36q-2.65,9.1-1.12,12.46a.89.89,0,0,0,.7.7q3.64,1.13,12.11-10.57A169.52,169.52,0,0,0,412.94,196a2.94,2.94,0,0,1,1.82-1.68,3.44,3.44,0,0,1,2.45.07,3.27,3.27,0,0,1,1.75,1.68,2.84,2.84,0,0,1,0,2.45,155.6,155.6,0,0,0-6.09,21.28q-2,9.94-.63,11.76c1.59.75,3.94.21,7.07-1.61a51.25,51.25,0,0,0,9.31-7.07,104.27,104.27,0,0,0,8.4-8.82A3.05,3.05,0,0,1,439.19,212.79Z" transform="translate(-12.04 -64.97)"/><path class="cls-1" d="M518.85,212.3a3.1,3.1,0,0,1,2.31.84,3.22,3.22,0,0,1,1.05,2.24,3.18,3.18,0,0,1-.77,2.31c-.56.66-1.52,1.66-2.87,3s-3.74,3.53-7.14,6.51-6.75,5.67-10,8a67.3,67.3,0,0,1-11,6.44,25.66,25.66,0,0,1-10.71,2.87,11.56,11.56,0,0,1-11.9-10.5,21.68,21.68,0,0,1,1-9.17,45.93,45.93,0,0,1,4.27-9.8c1.82-3.12,3.26-5.5,4.34-7.14a44.38,44.38,0,0,1,3-4.13q5.59-7.14,10.36-5.46,4.2,1.41,4.34,8.54a3.38,3.38,0,0,1-.91,2.38,3,3,0,0,1-2.31,1,3.17,3.17,0,0,1-1.68-.42,3.74,3.74,0,0,1-1.19-1.12,2.8,2.8,0,0,1-.49-1.68,12.51,12.51,0,0,0-.14-2,16.35,16.35,0,0,0-2.94,2.8,87.77,87.77,0,0,0-7.84,12.81q-3.93,7.63-3.36,12.53a5,5,0,0,0,2.1,3.78q2.24,1.83,6.3.7a37.28,37.28,0,0,0,8.68-3.78,84.91,84.91,0,0,0,9.59-6.51q5-3.84,9-7.49t6.65-6.58A3.45,3.45,0,0,1,518.85,212.3Z" transform="translate(-12.04 -64.97)"/><path class="cls-1" d="M568.69,219.3l1.33-.21,1.05.84a3.38,3.38,0,0,1,1.26,2.17,3.12,3.12,0,0,1-.63,2.45c-.66.84-1.43,1.78-2.31,2.8s-2.31,2.52-4.27,4.48a58.06,58.06,0,0,1-5.88,5.18,33.14,33.14,0,0,1-6.72,3.92,17.62,17.62,0,0,1-7.14,1.68,11.73,11.73,0,0,1-6.16-1.68q-4.2-2.52-4.34-9.1-9.37,11.49-17.78,9.24-6.87-1.95-7-9.66-.14-5.46,3.85-13A59.68,59.68,0,0,1,523.54,205q5.6-5.88,10.08-7.14a8.29,8.29,0,0,1,7.14.7,10.31,10.31,0,0,1,3.22,3.36v-.28a4,4,0,0,1,1.89-1.61,2.87,2.87,0,0,1,2.38.07,3.53,3.53,0,0,1,1.75,1.82,2.69,2.69,0,0,1,0,2.38q-2,4.91-4.34,9.94a68.76,68.76,0,0,0-4,13.72q-.92,5.75.91,7.42a5.2,5.2,0,0,0,4.76.56,23.44,23.44,0,0,0,5.46-2.45,36.43,36.43,0,0,0,5.53-4.2,66.71,66.71,0,0,0,4.83-4.76q2-2.16,3.36-4A3.48,3.48,0,0,1,568.69,219.3Zm-29.05-7.77c.18-.46.42-1,.7-1.68a4.63,4.63,0,0,1-.84-1.54q-.56-3.21-2.24-4.2a1,1,0,0,0-.7-.28,4.27,4.27,0,0,0-1,.14q-5.18,1.54-12.11,11.34t-6.79,16.1a3.11,3.11,0,0,0,2.24,3.36q4.07,1.13,9.73-5.81A96.5,96.5,0,0,0,539.64,211.53Z" transform="translate(-12.04 -64.97)"/><path class="cls-1" d="M614.82,235.89a3,3,0,0,1,2.31,1,3.34,3.34,0,0,1,.91,2.31,3.16,3.16,0,0,1-1,2.31Q612.29,246,607.4,246a7.23,7.23,0,0,1-4.34-1.4,8.61,8.61,0,0,1-3.15-4.41,25.68,25.68,0,0,1-1.54-5.81q-.36-2.65-.91-7.84-.84-9.24-1.82-10.92-3.36,1-16.94,17.5-4.91,6-7.28,8.54a14.6,14.6,0,0,1-4.06,3.29,3,3,0,0,1-3.22-.35,3.13,3.13,0,0,1-1.4-2.94q.84-8.67,9.94-44.94a3.57,3.57,0,0,1,1.54-2,3.26,3.26,0,0,1,2.45-.42,3,3,0,0,1,2,1.47,3.35,3.35,0,0,1,.42,2.45q-4.49,17.09-8,33.88l2.52-3.22a171.21,171.21,0,0,1,14.28-15.82q5-4.62,9-4.06a5.91,5.91,0,0,1,3.29,1.54,8.38,8.38,0,0,1,2,4.06c.46,1.87.81,3.5,1,4.9s.49,3.55.77,6.44q1.11,12.18,2.66,13.3c.56.38,1.44.26,2.66-.35a14.42,14.42,0,0,0,3.22-2.17A3,3,0,0,1,614.82,235.89Z" transform="translate(-12.04 -64.97)"/><path class="cls-1" d="M621.82,140.13a2.78,2.78,0,0,1,2.52-2,3.7,3.7,0,0,1,3.08,1.19,2.62,2.62,0,0,1,.42,3.15l-5.74,14.42a2.77,2.77,0,0,1-2.52,2,3.44,3.44,0,0,1-3-1.19,2.83,2.83,0,0,1-.49-3.15c.65-1.58,1.61-4,2.87-7.21S621.16,141.72,621.82,140.13Z" transform="translate(-12.04 -64.97)"/><path class="cls-1" d="M709.59,166.66a3.45,3.45,0,0,1,2.53,0,3,3,0,0,1,1.67,4.13q-2.1,5.33-13.86,9T670.12,182q-6-.56-11.77-1-7.27,14.85-17.22,32.62a95.28,95.28,0,0,0-1.25,23.66q.82,12,4,14.7a3.19,3.19,0,0,0,2.81.84c2-.18,4-1.37,6.3-3.57a43.5,43.5,0,0,0,5.31-6.09,3.18,3.18,0,0,1,4.48-.91,3.33,3.33,0,0,1,1.41,2.1,3.22,3.22,0,0,1-.43,2.45c-.46.66-1.07,1.45-1.81,2.38s-1.9,2.22-3.44,3.85a24.09,24.09,0,0,1-5.18,4.2,15.16,15.16,0,0,1-5.8,2.17h-1.27a10,10,0,0,1-6.72-2.52q-3.63-3.21-5.25-12a78.52,78.52,0,0,1-1.26-17.36A114.35,114.35,0,0,1,634.7,212c0-.09,0-.14.13-.14q2.94-14.28,7.56-31.78-37.65-1.82-43.11,3.36a3,3,0,0,1-2.24.84,3.2,3.2,0,0,1-2.38-1,3.38,3.38,0,0,1-.85-2.31,3.19,3.19,0,0,1,1-2.31q7.56-7.14,49.42-5,12-42.84,21.84-49.42a7.8,7.8,0,0,1,5.88-1.19,5.69,5.69,0,0,1,4.2,3.57,5,5,0,0,1,.57,2,26.26,26.26,0,0,1-.36,5,66.28,66.28,0,0,1-1.81,8.61,136.56,136.56,0,0,1-4.7,13.44q-3.36,8.55-8.4,19,4.49.28,9.38.7a89.81,89.81,0,0,0,11.07.42,72,72,0,0,0,9.09-.77,51.65,51.65,0,0,0,7.07-1.54,37.44,37.44,0,0,0,5.12-1.89,19,19,0,0,0,3.22-1.82,4.13,4.13,0,0,0,1.4-1.54A3.28,3.28,0,0,1,709.59,166.66Zm-63,23q2.25-4.33,4.62-9.24H649Q647.71,185.07,646.59,189.69Zm23.11-60.06q-7.56,5-18.91,44.24c.75.1,1.92.19,3.5.28q8.55-17.64,13-29.89t2.94-15C670.25,129.31,670.07,129.45,669.7,129.63Z" transform="translate(-12.04 -64.97)"/><path class="cls-1" d="M801.57,207.33a3.25,3.25,0,0,1,2.38,1,3.19,3.19,0,0,1,1,2.31,3.16,3.16,0,0,1-1,2.31,3.21,3.21,0,0,1-2.38,1q-4.49,0-11.48,4.13a94.84,94.84,0,0,0-14.56,10.85,107.43,107.43,0,0,1-11.13,23.45q-7.49,12.12-11.69,13.79a5.19,5.19,0,0,1-1.68.28,3.87,3.87,0,0,1-2.66-1q-4.2-3.78-1.26-11.62,2.24-5.73,8.47-13.58a130.73,130.73,0,0,1,14.21-15.12,32.43,32.43,0,0,0,1.26-7.14c0-2.24-.47-3.73-1.4-4.48a8.93,8.93,0,0,0-5.25.21,14.72,14.72,0,0,0-5.46,3.57q-2.73,2.67-4.9,5.25a52.34,52.34,0,0,0-4.69,6.86q-2.52,4.27-3.85,6.58c-.89,1.54-2,3.57-3.29,6.09a50.47,50.47,0,0,1-4.2,7.28,3.59,3.59,0,0,1-3.22,1.4,4,4,0,0,1-1.89-.84,3.17,3.17,0,0,1-1.19-1.68,36,36,0,0,1-1.68-9.87,88.84,88.84,0,0,1,.07-10.64q.35-4.83,1.19-12.25c.09-.65.37-2,.84-3.92a3,3,0,0,1,.42-1.54q1.82-7.56,4.9-17.92t7.84-23.8q4.76-13.44,9.66-24.5A103.27,103.27,0,0,1,765.45,125q5.59-7.7,10.22-7.7a6.89,6.89,0,0,1,6.58,3.64q2.1,3.93-.7,13.23a124.75,124.75,0,0,1-7.84,19.46q-5,10.16-12.46,22.82t-12.6,20.72q-5.17,8.06-10.22,15.61c-.28,1.4-.47,2.52-.56,3.36q-1.82,15.4-1.26,22.68,1.39-2.66,2.24-4.27t2.52-4.55q1.68-2.94,2.94-4.9c.84-1.3,1.89-2.87,3.15-4.69a42.77,42.77,0,0,1,3.5-4.48q1.6-1.74,3.71-3.71a21.54,21.54,0,0,1,4.13-3.08,29.3,29.3,0,0,1,4.2-1.89,12.61,12.61,0,0,1,4.55-.7,15.72,15.72,0,0,1,4.76.91l.56.28q5,2.94,4.62,10.92Q792.33,207.33,801.57,207.33Zm-47.88-42.84q-5.18,13.44-9.52,27.44,16.51-26.18,25.83-45.78t6.37-22.26h-.7a3.52,3.52,0,0,0-.77.28,12.63,12.63,0,0,0-2.59,2.52,47.71,47.71,0,0,0-4.34,6.09A125.14,125.14,0,0,0,761.74,145Q757.89,153.3,753.69,164.49Zm-.84,93.1a101.74,101.74,0,0,0,10.22-16.24q-7.43,8.68-9.8,14.84A7.68,7.68,0,0,0,752.85,257.59Z" transform="translate(-12.04 -64.97)"/><path class="cls-1" d="M844.9,216.92a3,3,0,0,1,2.31.91,3.19,3.19,0,0,1,1,2.31,3.42,3.42,0,0,1-.84,2.31c-1.4,1.5-3.1,3.15-5.11,5s-4.9,4.25-8.68,7.28a59.51,59.51,0,0,1-11.9,7.49,27,27,0,0,1-11.34,2.94,13.06,13.06,0,0,1-8.75-3.08,15.41,15.41,0,0,1-4.69-9.17,28.48,28.48,0,0,1,.56-11.55A52.78,52.78,0,0,1,802,209.57a40.94,40.94,0,0,1,9.66-12.11q5.73-4.83,11.48-3.29,5.6,1.54,6.3,5.88.42,3.09-2.24,7a37.36,37.36,0,0,1-7.35,7.77q-4.7,3.85-8.61,6.58t-8.12,5.39q-.71,7.14,2.8,10.36,2.1,2.1,5.81,1.4a29.46,29.46,0,0,0,7.77-2.73A58.8,58.8,0,0,0,828,230.5q4.47-3.28,8.12-6.44t6.44-6.09A3.45,3.45,0,0,1,844.9,216.92Zm-37.17-4.13a42.72,42.72,0,0,0-2.24,4.62,121.65,121.65,0,0,0,12.46-9.8q5-4.62,5-6.58c0-.09-.52-.23-1.54-.42a2.74,2.74,0,0,0-.84-.14c-1.87,0-4,1.15-6.37,3.43A35.71,35.71,0,0,0,807.73,212.79Z" transform="translate(-12.04 -64.97)"/><path class="cls-1" d="M855.05,247.93a3,3,0,0,1,2.38-.7,3.3,3.3,0,0,1,2.24,1.12q2,2.39-.42,4.62L855.19,257a2.62,2.62,0,0,1-2.38.77,3.51,3.51,0,0,1-2.24-1.19q-1.82-2.24.42-4.62Zm24.36-133.7a3.11,3.11,0,0,1,3.15-1.19,3.34,3.34,0,0,1,2.59,1.82,3.06,3.06,0,0,1-.42,3.15,32.11,32.11,0,0,0-3.92,6.72q-1.83,4.06-2.52,6.16t-2.38,8.33c-1.12,4.16-1.73,6.37-1.82,6.65a295,295,0,0,0-6.72,29.26,330.1,330.1,0,0,0-5.32,55.44,2.73,2.73,0,0,1-1.75,2.59,3.45,3.45,0,0,1-3.22-.35,3.2,3.2,0,0,1-1.61-2.94,342.36,342.36,0,0,1,6.86-63.56q2.94-13.71,6.72-26.74c.19-.56.67-2.24,1.47-5s1.38-4.73,1.75-5.81,1-2.66,1.75-4.76a34.16,34.16,0,0,1,2.52-5.39A51.67,51.67,0,0,1,879.41,114.23Z" transform="translate(-12.04 -64.97)"/><path class="cls-2" d="M388.51,95a1.35,1.35,0,0,1,.8.48,1.09,1.09,0,0,1,.25.82q-.26,2.1-3.05,6.35t-5.25,5.4a2.89,2.89,0,0,1-3,0c-1.64-1-2.2-3.55-1.7-7.55A52.65,52.65,0,0,1,370,108.1c-1.72,1.52-3.09,2.27-4.12,2.27a1.67,1.67,0,0,1-.95-.3,3,3,0,0,1-1.18-2.62,14.12,14.12,0,0,1,.75-4.6q.82-2.67,1.73-4.95c.6-1.52,1.3-3.09,2.1-4.73a1,1,0,0,1,.65-.6,1.22,1.22,0,0,1,.9.05,1.07,1.07,0,0,1,.6.65,1.22,1.22,0,0,1,0,.9,65.32,65.32,0,0,0-3.48,8.83q-1.28,4.17-.77,5.07,1.2-.24,4.65-4.25a101.5,101.5,0,0,0,7.1-9.4,1,1,0,0,1,1.45-.4,1,1,0,0,1,.57.55,1.24,1.24,0,0,1,.08.8,37.66,37.66,0,0,0-1,4.28,19.77,19.77,0,0,0-.3,4.07c0,1.24.31,2,.78,2.3.13.1.38.07.75-.1,1.26-.6,2.71-2.15,4.35-4.67S387.12,97,387.26,96a1.14,1.14,0,0,1,1.25-1Z" transform="translate(-12.04 -64.97)"/><path class="cls-2" d="M407.88,100.65a1.06,1.06,0,0,1,.83.32,1.16,1.16,0,0,1,.35.83,1.2,1.2,0,0,1-.3.82c-.5.54-1.11,1.13-1.83,1.78s-1.75,1.52-3.1,2.6a21.55,21.55,0,0,1-4.25,2.67,9.59,9.59,0,0,1-4.05,1,4.61,4.61,0,0,1-3.12-1.1,5.5,5.5,0,0,1-1.68-3.27,10.16,10.16,0,0,1,.2-4.13,18.67,18.67,0,0,1,1.63-4.2A14.56,14.56,0,0,1,396,93.7a4.43,4.43,0,0,1,4.1-1.18,2.7,2.7,0,0,1,2.25,2.1,3.68,3.68,0,0,1-.8,2.5,13.49,13.49,0,0,1-2.63,2.78c-1.12.92-2.14,1.7-3.07,2.35s-1.9,1.29-2.9,1.92c-.17,1.7.16,2.94,1,3.7a2.17,2.17,0,0,0,2.07.5,10.63,10.63,0,0,0,2.78-1,21.88,21.88,0,0,0,3.05-1.9c1.06-.78,2-1.55,2.9-2.3s1.63-1.48,2.3-2.18A1.22,1.22,0,0,1,407.88,100.65Zm-13.27-1.48a15.64,15.64,0,0,0-.8,1.65,43.62,43.62,0,0,0,4.45-3.5c1.2-1.1,1.8-1.88,1.8-2.35,0,0-.19-.08-.55-.15a1,1,0,0,0-.3,0A3.55,3.55,0,0,0,396.93,96,12.75,12.75,0,0,0,394.61,99.17Z" transform="translate(-12.04 -64.97)"/><path class="cls-2" d="M410.41,73.22a1,1,0,0,1,.9-.7,1.32,1.32,0,0,1,1.1.43.93.93,0,0,1,.15,1.12l-2.05,5.15a1,1,0,0,1-.9.7,1.21,1.21,0,0,1-1.08-.42,1,1,0,0,1-.17-1.13c.23-.56.57-1.42,1-2.57S410.17,73.79,410.41,73.22Z" transform="translate(-12.04 -64.97)"/><path class="cls-2" d="M426.71,93.92a1.14,1.14,0,0,1,.79.43,1.06,1.06,0,0,1,.25.85,1,1,0,0,1-.45.77,1.12,1.12,0,0,1-.84.25q-2.31-.3-4.63,2a21.15,21.15,0,0,0-4.05,6,52.68,52.68,0,0,0-3,8,1,1,0,0,1-1,.85.11.11,0,0,1-.09,0,1.07,1.07,0,0,1-1.06-.65q-1.2-2.44,4.1-23.55a1.09,1.09,0,0,1,.53-.7,1.11,1.11,0,0,1,.87-.12,1.13,1.13,0,0,1,.7.52,1.17,1.17,0,0,1,.15.9q-1.74,7.05-3,13.1a22.08,22.08,0,0,1,4.93-6.67A7.19,7.19,0,0,1,426.71,93.92Z" transform="translate(-12.04 -64.97)"/><path class="cls-2" d="M444.93,100.65a1,1,0,0,1,.82.32,1.12,1.12,0,0,1,.35.83,1.2,1.2,0,0,1-.3.82c-.5.54-1.1,1.13-1.82,1.78s-1.75,1.52-3.1,2.6a21.55,21.55,0,0,1-4.25,2.67,9.59,9.59,0,0,1-4.05,1,4.66,4.66,0,0,1-3.13-1.1,5.49,5.49,0,0,1-1.67-3.27,10.16,10.16,0,0,1,.2-4.13A19.11,19.11,0,0,1,429.6,98a14.88,14.88,0,0,1,3.45-4.32,4.44,4.44,0,0,1,4.1-1.18q2,.56,2.25,2.1a3.63,3.63,0,0,1-.8,2.5A13.15,13.15,0,0,1,436,99.9c-1.12.92-2.14,1.7-3.08,2.35s-1.9,1.29-2.9,1.92c-.16,1.7.17,2.94,1,3.7a2.19,2.19,0,0,0,2.08.5,10.45,10.45,0,0,0,2.77-1,20.78,20.78,0,0,0,3-1.9c1.07-.78,2-1.55,2.9-2.3a30.91,30.91,0,0,0,2.3-2.18A1.27,1.27,0,0,1,444.93,100.65Zm-13.28-1.48a17.88,17.88,0,0,0-.8,1.65,42.54,42.54,0,0,0,4.45-3.5c1.2-1.1,1.8-1.88,1.8-2.35,0,0-.18-.08-.55-.15a1,1,0,0,0-.3,0A3.56,3.56,0,0,0,434,96,12.77,12.77,0,0,0,431.65,99.17Z" transform="translate(-12.04 -64.97)"/><path class="cls-2" d="M483.85,82.7a1.17,1.17,0,0,1,.9,0,1.1,1.1,0,0,1,.63.6,1,1,0,0,1,0,.87q-.75,1.9-5,3.23a28,28,0,0,1-10.65.77c-1.43-.13-2.83-.25-4.2-.35q-2.6,5.31-6.15,11.65a34,34,0,0,0-.45,8.45c.2,2.87.69,4.62,1.45,5.25a1.12,1.12,0,0,0,1,.3,3.9,3.9,0,0,0,2.25-1.27,15.09,15.09,0,0,0,1.9-2.18,1.13,1.13,0,0,1,.73-.5,1.18,1.18,0,0,1,1.37.93,1.1,1.1,0,0,1-.15.87c-.16.24-.38.52-.65.85s-.67.8-1.22,1.38a9.21,9.21,0,0,1-1.85,1.5,5.39,5.39,0,0,1-2.08.77h-.45a3.58,3.58,0,0,1-2.4-.9,7.46,7.46,0,0,1-1.87-4.27,28.29,28.29,0,0,1-.45-6.2,40.69,40.69,0,0,1,.57-5.58,0,0,0,0,1,0-.05q1.05-5.1,2.7-11.35-13.44-.64-15.4,1.2a1.07,1.07,0,0,1-.8.3,1.15,1.15,0,0,1-.85-.35,1.2,1.2,0,0,1-.3-.82,1.16,1.16,0,0,1,.35-.83q2.7-2.55,17.65-1.8,4.31-15.3,7.8-17.65a2.79,2.79,0,0,1,2.1-.42,2,2,0,0,1,1.5,1.27,1.78,1.78,0,0,1,.2.73,8.39,8.39,0,0,1-.12,1.8,23.73,23.73,0,0,1-.65,3.07,50,50,0,0,1-1.68,4.8c-.8,2-1.8,4.3-3,6.8,1.07.07,2.19.15,3.35.25A30.47,30.47,0,0,0,474,86a25.38,25.38,0,0,0,3.25-.27,18.33,18.33,0,0,0,2.53-.55,13.08,13.08,0,0,0,1.82-.68,6.24,6.24,0,0,0,1.15-.65,1.35,1.35,0,0,0,.5-.55A1.22,1.22,0,0,1,483.85,82.7Zm-22.5,8.22q.81-1.55,1.65-3.3h-.8C461.9,88.72,461.62,89.82,461.35,90.92Zm8.25-21.45q-2.7,1.8-6.75,15.8c.27,0,.69.07,1.25.1a115.57,115.57,0,0,0,4.65-10.67q1.61-4.38,1.05-5.38S469.74,69.41,469.6,69.47Z" transform="translate(-12.04 -64.97)"/><path class="cls-2" d="M490.33,106.15a1,1,0,0,1,.85.22,1.2,1.2,0,0,1,.45.78,1.1,1.1,0,0,1-.23.87,7.45,7.45,0,0,1-1.95,1.8,5.2,5.2,0,0,1-2.65,1,4.25,4.25,0,0,1-3.4-1.3,4.32,4.32,0,0,1-1-1.85,15.86,15.86,0,0,1-.53-2.3q-.15-1-.3-3.15-.5-5.44-1.2-6.1-1.35.81-6.25,10.25a83.64,83.64,0,0,1-4.27,7.63c-.88,1.28-1.71,1.92-2.48,1.92h-.2a1.78,1.78,0,0,1-1.5-1.5q-.69-2.55,1.75-13a1.14,1.14,0,0,1,.1-.45q1-4.1,2.25-8.55,1.65-5.85,3.45-10.82t3.5-8.6a29.54,29.54,0,0,1,3.2-5.53Q481.86,65,483.7,65a2.47,2.47,0,0,1,2.4,1.35c.54,1,.43,2.81-.32,5.33a50.25,50.25,0,0,1-3.13,7.85q-2,4.08-4.87,9.1t-4.65,7.87c-1.18,1.9-2.31,3.69-3.38,5.35-.6,2.47-1.06,4.66-1.4,6.58a28.17,28.17,0,0,0-.5,4.37,84.82,84.82,0,0,0,4.25-7.55,82,82,0,0,1,5.53-9.6c1.22-1.63,2.37-2.23,3.47-1.8a2.16,2.16,0,0,1,1.1.8,5.1,5.1,0,0,1,.7,1.23,10,10,0,0,1,.48,1.82q.22,1.2.3,2c.05.52.12,1.29.22,2.32q.51,5.2,1.15,5.85a2,2,0,0,0,1.6.65,3.07,3.07,0,0,0,1.63-.65,5.92,5.92,0,0,0,1.27-1.2A1.19,1.19,0,0,1,490.33,106.15ZM481.8,68.87a42.45,42.45,0,0,0-5.17,10.2q-2.73,7.05-5,15.4,3.9-6.34,6.9-12a84.37,84.37,0,0,0,4.58-9.77q1.57-4.17,1-5.33a.87.87,0,0,0-.4-.15C483.22,67.27,482.6,67.81,481.8,68.87Z" transform="translate(-12.04 -64.97)"/><path class="cls-2" d="M507.68,100.65a1,1,0,0,1,.82.32,1.12,1.12,0,0,1,.35.83,1.2,1.2,0,0,1-.3.82c-.5.54-1.1,1.13-1.82,1.78s-1.75,1.52-3.1,2.6a21.55,21.55,0,0,1-4.25,2.67,9.59,9.59,0,0,1-4.05,1,4.66,4.66,0,0,1-3.13-1.1,5.49,5.49,0,0,1-1.67-3.27,10.16,10.16,0,0,1,.2-4.13,19.11,19.11,0,0,1,1.62-4.2,14.88,14.88,0,0,1,3.45-4.32,4.44,4.44,0,0,1,4.1-1.18q2,.56,2.25,2.1a3.63,3.63,0,0,1-.8,2.5,13.15,13.15,0,0,1-2.62,2.78c-1.12.92-2.14,1.7-3.08,2.35s-1.9,1.29-2.9,1.92c-.16,1.7.17,2.94,1,3.7a2.19,2.19,0,0,0,2.08.5,10.45,10.45,0,0,0,2.77-1,20.78,20.78,0,0,0,3-1.9c1.07-.78,2-1.55,2.9-2.3a30.91,30.91,0,0,0,2.3-2.18A1.27,1.27,0,0,1,507.68,100.65ZM494.4,99.17a17.88,17.88,0,0,0-.8,1.65,42.54,42.54,0,0,0,4.45-3.5c1.2-1.1,1.8-1.88,1.8-2.35,0,0-.18-.08-.55-.15a1,1,0,0,0-.3,0A3.56,3.56,0,0,0,496.73,96,12.77,12.77,0,0,0,494.4,99.17Z" transform="translate(-12.04 -64.97)"/><path class="cls-2" d="M519.15,93.92a1.14,1.14,0,0,1,.8.43,1.09,1.09,0,0,1,.25.85,1,1,0,0,1-.45.77,1.13,1.13,0,0,1-.85.25q-2.29-.3-4.62,2a21.15,21.15,0,0,0-4,6,52.68,52.68,0,0,0-3,8,1,1,0,0,1-1,.85.11.11,0,0,1-.1,0,1.06,1.06,0,0,1-1-.65q-1.2-2.44,4.1-23.55a1.06,1.06,0,0,1,.53-.7,1.11,1.11,0,0,1,.87-.12,1.15,1.15,0,0,1,.7.52,1.17,1.17,0,0,1,.15.9q-1.74,7.05-3,13.1a22.08,22.08,0,0,1,4.93-6.67A7.17,7.17,0,0,1,519.15,93.92Z" transform="translate(-12.04 -64.97)"/><path class="cls-2" d="M537.38,100.65a1,1,0,0,1,.82.32,1.12,1.12,0,0,1,.35.83,1.2,1.2,0,0,1-.3.82c-.5.54-1.1,1.13-1.82,1.78s-1.75,1.52-3.1,2.6a21.55,21.55,0,0,1-4.25,2.67,9.63,9.63,0,0,1-4.05,1,4.66,4.66,0,0,1-3.13-1.1,5.44,5.44,0,0,1-1.67-3.27,10.16,10.16,0,0,1,.2-4.13,19.11,19.11,0,0,1,1.62-4.2,14.88,14.88,0,0,1,3.45-4.32,4.44,4.44,0,0,1,4.1-1.18q2,.56,2.25,2.1a3.63,3.63,0,0,1-.8,2.5,13.42,13.42,0,0,1-2.62,2.78c-1.12.92-2.14,1.7-3.08,2.35s-1.9,1.29-2.9,1.92c-.16,1.7.17,2.94,1,3.7a2.19,2.19,0,0,0,2.08.5,10.45,10.45,0,0,0,2.77-1,20.78,20.78,0,0,0,3.05-1.9c1.07-.78,2-1.55,2.9-2.3a30.91,30.91,0,0,0,2.3-2.18A1.27,1.27,0,0,1,537.38,100.65ZM524.1,99.17a17.88,17.88,0,0,0-.8,1.65,42.54,42.54,0,0,0,4.45-3.5c1.2-1.1,1.8-1.88,1.8-2.35,0,0-.18-.08-.55-.15a1,1,0,0,0-.3,0A3.56,3.56,0,0,0,526.43,96,12.77,12.77,0,0,0,524.1,99.17Z" transform="translate(-12.04 -64.97)"/><path class="cls-2" d="M609,94.28a1.09,1.09,0,0,1,.76.93,1.29,1.29,0,0,1-.37,1.12,1,1,0,0,1-1.12.19,12.77,12.77,0,0,0-2.06-.61,11,11,0,0,0-2.34-.23H601.8c-.5,0-1.29.06-2.37.13s-1.81.12-2.17.14l-10.79.59q-3.74.2-11.18.63l-11.18.63a.91.91,0,0,1-1-.52,1.23,1.23,0,0,1,.07-1.16,1.14,1.14,0,0,1,1-.63l7.67-.44c2.87-.17,5.75-.34,8.63-.49l7.62-.42c1.06-.05,2.73-.2,5-.44s4.16-.42,5.63-.53a32.68,32.68,0,0,1,5.11,0A17.83,17.83,0,0,1,609,94.28Z" transform="translate(-12.04 -64.97)"/><path class="cls-2" d="M291.14,101.69a1.1,1.1,0,0,1-.71-1,1.26,1.26,0,0,1,.41-1.11.94.94,0,0,1,1.12-.14,12.9,12.9,0,0,0,2,.69,11.2,11.2,0,0,0,2.33.32l2.05.07c.5,0,1.29,0,2.37,0l2.18-.06,10.79-.16c2.5,0,6.24-.1,11.2-.2l11.2-.19a.88.88,0,0,1,.93.56,1.24,1.24,0,0,1-.1,1.15,1.14,1.14,0,0,1-1,.59l-7.68.15q-4.32.09-8.65.15l-7.62.12c-1.07,0-2.74.1-5,.25s-4.17.25-5.65.31a34.92,34.92,0,0,1-5.1-.25A18.4,18.4,0,0,1,291.14,101.69Z" transform="translate(-12.04 -64.97)"/></svg>